<svg width="48" height="48" viewBox="0 0 48 48" fill="none" xmlns="http://www.w3.org/2000/svg">
<rect width="48" height="48" rx="24" fill="url(#paint0_linear_46045_32)"/>
<path d="M30.021 27.4686C28.8562 29.1657 26.8373 30.3032 24.5466 30.3032C20.9165 30.3032 17.9852 27.4873 17.9852 24.0002C17.9852 20.5129 20.9165 17.6971 24.5466 17.6971C26.8178 17.6971 28.8173 18.7973 29.982 20.4757L35.9223 16.3544C33.418 12.9045 29.2444 10.6668 24.5466 10.6668C16.8787 10.6481 10.6667 16.6341 10.6667 24.0002C10.6667 31.3661 16.8787 37.3334 24.5466 37.3334C29.3026 37.3334 33.4957 35.0398 36 31.534L30.021 27.4686Z" fill="white"/>
<defs>
<linearGradient id="paint0_linear_46045_32" x1="24" y1="0" x2="24" y2="48" gradientUnits="userSpaceOnUse">
<stop stop-color="#59ACDD"/>
<stop offset="1" stop-color="#7D89F4"/>
</linearGradient>
</defs>
</svg>
